<mxfile host="app.diagrams.net" agent="Mozilla/5.0 (X11; Linux x86_64; rv:133.0) Gecko/20100101 Firefox/133.0" version="26.0.5">
  <diagram name="Page-1" id="ToJDzl_4S9SJtDrV855b">
    <mxGraphModel dx="1213" dy="2435" grid="1" gridSize="10" guides="1" tooltips="1" connect="1" arrows="1" fold="1" page="1" pageScale="1" pageWidth="850" pageHeight="1100" math="0" shadow="0">
      <root>
        <mxCell id="0" />
        <mxCell id="1" parent="0" />
        <mxCell id="xGkH-jB9jSA_RrB5lTJx-1" value="Compagnia" style="whiteSpace=wrap;html=1;align=center;rounded=0;" vertex="1" parent="1">
          <mxGeometry x="425" y="260" width="100" height="40" as="geometry" />
        </mxCell>
        <mxCell id="xGkH-jB9jSA_RrB5lTJx-2" style="edgeStyle=orthogonalEdgeStyle;orthogonalLoop=1;jettySize=auto;html=1;exitX=0.5;exitY=1;exitDx=0;exitDy=0;entryX=0.5;entryY=0;entryDx=0;entryDy=0;" edge="1" parent="1" source="xGkH-jB9jSA_RrB5lTJx-5" target="xGkH-jB9jSA_RrB5lTJx-49">
          <mxGeometry relative="1" as="geometry" />
        </mxCell>
        <mxCell id="xGkH-jB9jSA_RrB5lTJx-3" value="1,1" style="edgeLabel;html=1;align=center;verticalAlign=middle;resizable=0;points=[];" vertex="1" connectable="0" parent="xGkH-jB9jSA_RrB5lTJx-2">
          <mxGeometry x="-0.6" y="-1" relative="1" as="geometry">
            <mxPoint as="offset" />
          </mxGeometry>
        </mxCell>
        <mxCell id="xGkH-jB9jSA_RrB5lTJx-4" value="" style="edgeStyle=orthogonalEdgeStyle;orthogonalLoop=1;jettySize=auto;html=1;" edge="1" parent="1" source="xGkH-jB9jSA_RrB5lTJx-5" target="xGkH-jB9jSA_RrB5lTJx-94">
          <mxGeometry relative="1" as="geometry" />
        </mxCell>
        <mxCell id="xGkH-jB9jSA_RrB5lTJx-5" value="Ristorante" style="whiteSpace=wrap;html=1;align=center;rounded=0;" vertex="1" parent="1">
          <mxGeometry x="140" y="450" width="100" height="40" as="geometry" />
        </mxCell>
        <mxCell id="xGkH-jB9jSA_RrB5lTJx-6" value="Negozio" style="whiteSpace=wrap;html=1;align=center;rounded=0;" vertex="1" parent="1">
          <mxGeometry x="280" y="450" width="100" height="40" as="geometry" />
        </mxCell>
        <mxCell id="xGkH-jB9jSA_RrB5lTJx-7" value="Lounge" style="whiteSpace=wrap;html=1;align=center;rounded=0;" vertex="1" parent="1">
          <mxGeometry x="425" y="450" width="100" height="40" as="geometry" />
        </mxCell>
        <mxCell id="xGkH-jB9jSA_RrB5lTJx-8" value="Servizio Trasporto" style="whiteSpace=wrap;html=1;align=center;rounded=0;" vertex="1" parent="1">
          <mxGeometry x="670" y="450" width="100" height="40" as="geometry" />
        </mxCell>
        <mxCell id="xGkH-jB9jSA_RrB5lTJx-9" style="edgeStyle=orthogonalEdgeStyle;orthogonalLoop=1;jettySize=auto;html=1;exitX=0.5;exitY=1;exitDx=0;exitDy=0;entryX=0.5;entryY=0;entryDx=0;entryDy=0;" edge="1" parent="1" source="xGkH-jB9jSA_RrB5lTJx-11" target="xGkH-jB9jSA_RrB5lTJx-41">
          <mxGeometry relative="1" as="geometry" />
        </mxCell>
        <mxCell id="xGkH-jB9jSA_RrB5lTJx-10" value="1,1" style="edgeLabel;html=1;align=center;verticalAlign=middle;resizable=0;points=[];" vertex="1" connectable="0" parent="xGkH-jB9jSA_RrB5lTJx-9">
          <mxGeometry x="-0.5212" y="3" relative="1" as="geometry">
            <mxPoint as="offset" />
          </mxGeometry>
        </mxCell>
        <mxCell id="xGkH-jB9jSA_RrB5lTJx-11" value="Servizio Commerciale" style="whiteSpace=wrap;html=1;align=center;rounded=0;" vertex="1" parent="1">
          <mxGeometry x="280" y="600" width="100" height="40" as="geometry" />
        </mxCell>
        <mxCell id="xGkH-jB9jSA_RrB5lTJx-12" style="edgeStyle=orthogonalEdgeStyle;orthogonalLoop=1;jettySize=auto;html=1;exitX=0.5;exitY=1;exitDx=0;exitDy=0;entryX=0;entryY=0.5;entryDx=0;entryDy=0;" edge="1" parent="1" source="xGkH-jB9jSA_RrB5lTJx-14" target="xGkH-jB9jSA_RrB5lTJx-46">
          <mxGeometry relative="1" as="geometry" />
        </mxCell>
        <mxCell id="xGkH-jB9jSA_RrB5lTJx-13" value="1,1" style="edgeLabel;html=1;align=center;verticalAlign=middle;resizable=0;points=[];" vertex="1" connectable="0" parent="xGkH-jB9jSA_RrB5lTJx-12">
          <mxGeometry x="-0.8458" y="1" relative="1" as="geometry">
            <mxPoint as="offset" />
          </mxGeometry>
        </mxCell>
        <mxCell id="xGkH-jB9jSA_RrB5lTJx-14" value="Servizio Sicurezza" style="whiteSpace=wrap;html=1;align=center;rounded=0;" vertex="1" parent="1">
          <mxGeometry x="30" y="600" width="100" height="40" as="geometry" />
        </mxCell>
        <mxCell id="xGkH-jB9jSA_RrB5lTJx-15" style="edgeStyle=orthogonalEdgeStyle;orthogonalLoop=1;jettySize=auto;html=1;exitX=0.5;exitY=0;exitDx=0;exitDy=0;entryX=0.5;entryY=1;entryDx=0;entryDy=0;" edge="1" parent="1" source="xGkH-jB9jSA_RrB5lTJx-17" target="xGkH-jB9jSA_RrB5lTJx-37">
          <mxGeometry relative="1" as="geometry" />
        </mxCell>
        <mxCell id="xGkH-jB9jSA_RrB5lTJx-16" value="0,N" style="edgeLabel;html=1;align=center;verticalAlign=middle;resizable=0;points=[];" vertex="1" connectable="0" parent="xGkH-jB9jSA_RrB5lTJx-15">
          <mxGeometry x="-0.0333" relative="1" as="geometry">
            <mxPoint as="offset" />
          </mxGeometry>
        </mxCell>
        <mxCell id="xGkH-jB9jSA_RrB5lTJx-17" value="Parcheggio" style="whiteSpace=wrap;html=1;align=center;rounded=0;" vertex="1" parent="1">
          <mxGeometry x="550" y="610" width="100" height="40" as="geometry" />
        </mxCell>
        <mxCell id="xGkH-jB9jSA_RrB5lTJx-18" value="" style="edgeStyle=orthogonalEdgeStyle;rounded=0;orthogonalLoop=1;jettySize=auto;html=1;curved=1;exitX=0;exitY=1;exitDx=0;exitDy=0;" edge="1" parent="1" source="xGkH-jB9jSA_RrB5lTJx-23" target="xGkH-jB9jSA_RrB5lTJx-24">
          <mxGeometry relative="1" as="geometry" />
        </mxCell>
        <mxCell id="xGkH-jB9jSA_RrB5lTJx-19" style="edgeStyle=orthogonalEdgeStyle;orthogonalLoop=1;jettySize=auto;html=1;exitX=1;exitY=0.5;exitDx=0;exitDy=0;entryX=0;entryY=0.5;entryDx=0;entryDy=0;" edge="1" parent="1" source="xGkH-jB9jSA_RrB5lTJx-23" target="xGkH-jB9jSA_RrB5lTJx-34">
          <mxGeometry relative="1" as="geometry" />
        </mxCell>
        <mxCell id="xGkH-jB9jSA_RrB5lTJx-20" value="0,N" style="edgeLabel;html=1;align=center;verticalAlign=middle;resizable=0;points=[];" vertex="1" connectable="0" parent="xGkH-jB9jSA_RrB5lTJx-19">
          <mxGeometry x="-0.8644" y="3" relative="1" as="geometry">
            <mxPoint as="offset" />
          </mxGeometry>
        </mxCell>
        <mxCell id="xGkH-jB9jSA_RrB5lTJx-21" style="edgeStyle=orthogonalEdgeStyle;orthogonalLoop=1;jettySize=auto;html=1;exitX=1;exitY=0;exitDx=0;exitDy=0;entryX=0.5;entryY=1;entryDx=0;entryDy=0;" edge="1" parent="1" source="xGkH-jB9jSA_RrB5lTJx-23" target="xGkH-jB9jSA_RrB5lTJx-40">
          <mxGeometry relative="1" as="geometry">
            <Array as="points">
              <mxPoint x="490" y="770" />
              <mxPoint x="490" y="750" />
              <mxPoint x="520" y="750" />
              <mxPoint x="520" y="730" />
              <mxPoint x="540" y="730" />
            </Array>
          </mxGeometry>
        </mxCell>
        <mxCell id="xGkH-jB9jSA_RrB5lTJx-22" value="0,N" style="edgeLabel;html=1;align=center;verticalAlign=middle;resizable=0;points=[];" vertex="1" connectable="0" parent="xGkH-jB9jSA_RrB5lTJx-21">
          <mxGeometry x="-0.8848" y="-1" relative="1" as="geometry">
            <mxPoint as="offset" />
          </mxGeometry>
        </mxCell>
        <mxCell id="xGkH-jB9jSA_RrB5lTJx-194" style="edgeStyle=orthogonalEdgeStyle;rounded=0;orthogonalLoop=1;jettySize=auto;html=1;exitX=1;exitY=1;exitDx=0;exitDy=0;" edge="1" parent="1" source="xGkH-jB9jSA_RrB5lTJx-23" target="xGkH-jB9jSA_RrB5lTJx-195">
          <mxGeometry relative="1" as="geometry">
            <mxPoint x="970" y="730" as="targetPoint" />
          </mxGeometry>
        </mxCell>
        <mxCell id="xGkH-jB9jSA_RrB5lTJx-203" value="&lt;div&gt;1,N&lt;/div&gt;" style="edgeLabel;html=1;align=center;verticalAlign=middle;resizable=0;points=[];" vertex="1" connectable="0" parent="xGkH-jB9jSA_RrB5lTJx-194">
          <mxGeometry x="-0.8625" y="-3" relative="1" as="geometry">
            <mxPoint as="offset" />
          </mxGeometry>
        </mxCell>
        <mxCell id="xGkH-jB9jSA_RrB5lTJx-23" value="Servizio" style="whiteSpace=wrap;html=1;align=center;rounded=0;" vertex="1" parent="1">
          <mxGeometry x="320" y="770" width="100" height="40" as="geometry" />
        </mxCell>
        <mxCell id="xGkH-jB9jSA_RrB5lTJx-24" value="" style="shape=waypoint;sketch=0;size=6;pointerEvents=1;points=[];fillColor=default;resizable=0;rotatable=0;perimeter=centerPerimeter;snapToPoint=1;rounded=0;" vertex="1" parent="1">
          <mxGeometry x="310" y="860" width="20" height="20" as="geometry" />
        </mxCell>
        <mxCell id="xGkH-jB9jSA_RrB5lTJx-25" value="id" style="text;html=1;align=center;verticalAlign=middle;resizable=0;points=[];autosize=1;strokeColor=none;fillColor=none;" vertex="1" parent="1">
          <mxGeometry x="305" y="870" width="30" height="30" as="geometry" />
        </mxCell>
        <mxCell id="xGkH-jB9jSA_RrB5lTJx-26" value="nome" style="text;html=1;align=center;verticalAlign=middle;resizable=0;points=[];autosize=1;strokeColor=none;fillColor=none;" vertex="1" parent="1">
          <mxGeometry x="320" y="890" width="50" height="30" as="geometry" />
        </mxCell>
        <mxCell id="xGkH-jB9jSA_RrB5lTJx-27" value="descrizione" style="text;html=1;align=center;verticalAlign=middle;resizable=0;points=[];autosize=1;strokeColor=none;fillColor=none;" vertex="1" parent="1">
          <mxGeometry x="345" y="920" width="80" height="30" as="geometry" />
        </mxCell>
        <mxCell id="xGkH-jB9jSA_RrB5lTJx-28" value="locazione" style="text;html=1;align=center;verticalAlign=middle;resizable=0;points=[];autosize=1;strokeColor=none;fillColor=none;" vertex="1" parent="1">
          <mxGeometry x="380" y="950" width="70" height="30" as="geometry" />
        </mxCell>
        <mxCell id="xGkH-jB9jSA_RrB5lTJx-29" style="edgeStyle=orthogonalEdgeStyle;orthogonalLoop=1;jettySize=auto;html=1;exitX=0.25;exitY=1;exitDx=0;exitDy=0;entryX=0.487;entryY=0.072;entryDx=0;entryDy=0;entryPerimeter=0;" edge="1" parent="1" source="xGkH-jB9jSA_RrB5lTJx-23" target="xGkH-jB9jSA_RrB5lTJx-26">
          <mxGeometry relative="1" as="geometry" />
        </mxCell>
        <mxCell id="xGkH-jB9jSA_RrB5lTJx-30" style="edgeStyle=orthogonalEdgeStyle;orthogonalLoop=1;jettySize=auto;html=1;exitX=0.5;exitY=1;exitDx=0;exitDy=0;entryX=0.449;entryY=0.107;entryDx=0;entryDy=0;entryPerimeter=0;" edge="1" parent="1" source="xGkH-jB9jSA_RrB5lTJx-23" target="xGkH-jB9jSA_RrB5lTJx-27">
          <mxGeometry relative="1" as="geometry" />
        </mxCell>
        <mxCell id="xGkH-jB9jSA_RrB5lTJx-31" style="edgeStyle=orthogonalEdgeStyle;orthogonalLoop=1;jettySize=auto;html=1;exitX=1;exitY=1;exitDx=0;exitDy=0;entryX=0.722;entryY=0.026;entryDx=0;entryDy=0;entryPerimeter=0;" edge="1" parent="1" source="xGkH-jB9jSA_RrB5lTJx-23" target="xGkH-jB9jSA_RrB5lTJx-28">
          <mxGeometry relative="1" as="geometry" />
        </mxCell>
        <mxCell id="xGkH-jB9jSA_RrB5lTJx-32" style="edgeStyle=orthogonalEdgeStyle;orthogonalLoop=1;jettySize=auto;html=1;exitX=1;exitY=0.5;exitDx=0;exitDy=0;entryX=1;entryY=1;entryDx=0;entryDy=0;" edge="1" parent="1" source="xGkH-jB9jSA_RrB5lTJx-34" target="xGkH-jB9jSA_RrB5lTJx-8">
          <mxGeometry relative="1" as="geometry" />
        </mxCell>
        <mxCell id="xGkH-jB9jSA_RrB5lTJx-33" value="1,1" style="edgeLabel;html=1;align=center;verticalAlign=middle;resizable=0;points=[];" vertex="1" connectable="0" parent="xGkH-jB9jSA_RrB5lTJx-32">
          <mxGeometry x="0.93" y="-2" relative="1" as="geometry">
            <mxPoint as="offset" />
          </mxGeometry>
        </mxCell>
        <mxCell id="xGkH-jB9jSA_RrB5lTJx-34" value="è un" style="shape=rhombus;perimeter=rhombusPerimeter;whiteSpace=wrap;html=1;align=center;" vertex="1" parent="1">
          <mxGeometry x="570" y="770" width="100" height="40" as="geometry" />
        </mxCell>
        <mxCell id="xGkH-jB9jSA_RrB5lTJx-35" style="edgeStyle=orthogonalEdgeStyle;orthogonalLoop=1;jettySize=auto;html=1;exitX=0.5;exitY=0;exitDx=0;exitDy=0;entryX=0;entryY=0.75;entryDx=0;entryDy=0;" edge="1" parent="1" source="xGkH-jB9jSA_RrB5lTJx-37" target="xGkH-jB9jSA_RrB5lTJx-8">
          <mxGeometry relative="1" as="geometry" />
        </mxCell>
        <mxCell id="xGkH-jB9jSA_RrB5lTJx-36" value="1,N" style="edgeLabel;html=1;align=center;verticalAlign=middle;resizable=0;points=[];" vertex="1" connectable="0" parent="xGkH-jB9jSA_RrB5lTJx-35">
          <mxGeometry x="0.5524" y="-1" relative="1" as="geometry">
            <mxPoint as="offset" />
          </mxGeometry>
        </mxCell>
        <mxCell id="xGkH-jB9jSA_RrB5lTJx-37" value="collega" style="shape=rhombus;perimeter=rhombusPerimeter;whiteSpace=wrap;html=1;align=center;" vertex="1" parent="1">
          <mxGeometry x="600" y="530" width="100" height="40" as="geometry" />
        </mxCell>
        <mxCell id="xGkH-jB9jSA_RrB5lTJx-38" style="edgeStyle=orthogonalEdgeStyle;orthogonalLoop=1;jettySize=auto;html=1;exitX=0.5;exitY=0;exitDx=0;exitDy=0;entryX=0.5;entryY=1;entryDx=0;entryDy=0;" edge="1" parent="1" source="xGkH-jB9jSA_RrB5lTJx-40" target="xGkH-jB9jSA_RrB5lTJx-17">
          <mxGeometry relative="1" as="geometry" />
        </mxCell>
        <mxCell id="xGkH-jB9jSA_RrB5lTJx-39" value="1,1" style="edgeLabel;html=1;align=center;verticalAlign=middle;resizable=0;points=[];" vertex="1" connectable="0" parent="xGkH-jB9jSA_RrB5lTJx-38">
          <mxGeometry x="0.6519" y="-1" relative="1" as="geometry">
            <mxPoint as="offset" />
          </mxGeometry>
        </mxCell>
        <mxCell id="xGkH-jB9jSA_RrB5lTJx-40" value="è un" style="shape=rhombus;perimeter=rhombusPerimeter;whiteSpace=wrap;html=1;align=center;" vertex="1" parent="1">
          <mxGeometry x="490" y="700" width="100" height="40" as="geometry" />
        </mxCell>
        <mxCell id="xGkH-jB9jSA_RrB5lTJx-41" value="è un" style="shape=rhombus;perimeter=rhombusPerimeter;whiteSpace=wrap;html=1;align=center;" vertex="1" parent="1">
          <mxGeometry x="295" y="680" width="100" height="40" as="geometry" />
        </mxCell>
        <mxCell id="xGkH-jB9jSA_RrB5lTJx-42" style="edgeStyle=orthogonalEdgeStyle;orthogonalLoop=1;jettySize=auto;html=1;exitX=0.5;exitY=1;exitDx=0;exitDy=0;entryX=0.69;entryY=0.075;entryDx=0;entryDy=0;entryPerimeter=0;" edge="1" parent="1" source="xGkH-jB9jSA_RrB5lTJx-41" target="xGkH-jB9jSA_RrB5lTJx-23">
          <mxGeometry relative="1" as="geometry" />
        </mxCell>
        <mxCell id="xGkH-jB9jSA_RrB5lTJx-43" value="0,N" style="edgeLabel;html=1;align=center;verticalAlign=middle;resizable=0;points=[];" vertex="1" connectable="0" parent="xGkH-jB9jSA_RrB5lTJx-42">
          <mxGeometry x="0.7801" relative="1" as="geometry">
            <mxPoint as="offset" />
          </mxGeometry>
        </mxCell>
        <mxCell id="xGkH-jB9jSA_RrB5lTJx-44" style="edgeStyle=orthogonalEdgeStyle;orthogonalLoop=1;jettySize=auto;html=1;exitX=0.5;exitY=1;exitDx=0;exitDy=0;entryX=0;entryY=0.75;entryDx=0;entryDy=0;" edge="1" parent="1" source="xGkH-jB9jSA_RrB5lTJx-46" target="xGkH-jB9jSA_RrB5lTJx-23">
          <mxGeometry relative="1" as="geometry" />
        </mxCell>
        <mxCell id="xGkH-jB9jSA_RrB5lTJx-45" value="0,N" style="edgeLabel;html=1;align=center;verticalAlign=middle;resizable=0;points=[];" vertex="1" connectable="0" parent="xGkH-jB9jSA_RrB5lTJx-44">
          <mxGeometry x="0.7373" y="1" relative="1" as="geometry">
            <mxPoint as="offset" />
          </mxGeometry>
        </mxCell>
        <mxCell id="xGkH-jB9jSA_RrB5lTJx-46" value="è un" style="shape=rhombus;perimeter=rhombusPerimeter;whiteSpace=wrap;html=1;align=center;" vertex="1" parent="1">
          <mxGeometry x="150" y="710" width="100" height="40" as="geometry" />
        </mxCell>
        <mxCell id="xGkH-jB9jSA_RrB5lTJx-47" style="edgeStyle=orthogonalEdgeStyle;orthogonalLoop=1;jettySize=auto;html=1;exitX=0.5;exitY=1;exitDx=0;exitDy=0;entryX=0;entryY=0.5;entryDx=0;entryDy=0;" edge="1" parent="1" source="xGkH-jB9jSA_RrB5lTJx-49" target="xGkH-jB9jSA_RrB5lTJx-11">
          <mxGeometry relative="1" as="geometry" />
        </mxCell>
        <mxCell id="xGkH-jB9jSA_RrB5lTJx-48" value="0,N" style="edgeLabel;html=1;align=center;verticalAlign=middle;resizable=0;points=[];" vertex="1" connectable="0" parent="xGkH-jB9jSA_RrB5lTJx-47">
          <mxGeometry x="0.8061" y="-2" relative="1" as="geometry">
            <mxPoint as="offset" />
          </mxGeometry>
        </mxCell>
        <mxCell id="xGkH-jB9jSA_RrB5lTJx-49" value="è un" style="shape=rhombus;perimeter=rhombusPerimeter;whiteSpace=wrap;html=1;align=center;" vertex="1" parent="1">
          <mxGeometry x="170" y="530" width="100" height="40" as="geometry" />
        </mxCell>
        <mxCell id="xGkH-jB9jSA_RrB5lTJx-50" style="edgeStyle=orthogonalEdgeStyle;orthogonalLoop=1;jettySize=auto;html=1;exitX=0.5;exitY=1;exitDx=0;exitDy=0;entryX=0.5;entryY=0;entryDx=0;entryDy=0;" edge="1" parent="1" source="xGkH-jB9jSA_RrB5lTJx-53" target="xGkH-jB9jSA_RrB5lTJx-11">
          <mxGeometry relative="1" as="geometry" />
        </mxCell>
        <mxCell id="xGkH-jB9jSA_RrB5lTJx-51" style="edgeStyle=orthogonalEdgeStyle;orthogonalLoop=1;jettySize=auto;html=1;exitX=0.5;exitY=0;exitDx=0;exitDy=0;entryX=0.5;entryY=1;entryDx=0;entryDy=0;" edge="1" parent="1" source="xGkH-jB9jSA_RrB5lTJx-53" target="xGkH-jB9jSA_RrB5lTJx-6">
          <mxGeometry relative="1" as="geometry" />
        </mxCell>
        <mxCell id="xGkH-jB9jSA_RrB5lTJx-52" value="1,1" style="edgeLabel;html=1;align=center;verticalAlign=middle;resizable=0;points=[];" vertex="1" connectable="0" parent="xGkH-jB9jSA_RrB5lTJx-51">
          <mxGeometry x="0.4667" y="-2" relative="1" as="geometry">
            <mxPoint as="offset" />
          </mxGeometry>
        </mxCell>
        <mxCell id="xGkH-jB9jSA_RrB5lTJx-53" value="è un" style="shape=rhombus;perimeter=rhombusPerimeter;whiteSpace=wrap;html=1;align=center;" vertex="1" parent="1">
          <mxGeometry x="280" y="530" width="100" height="40" as="geometry" />
        </mxCell>
        <mxCell id="xGkH-jB9jSA_RrB5lTJx-54" style="edgeStyle=orthogonalEdgeStyle;orthogonalLoop=1;jettySize=auto;html=1;exitX=0.5;exitY=1;exitDx=0;exitDy=0;entryX=1;entryY=0.5;entryDx=0;entryDy=0;" edge="1" parent="1" source="xGkH-jB9jSA_RrB5lTJx-58" target="xGkH-jB9jSA_RrB5lTJx-11">
          <mxGeometry relative="1" as="geometry" />
        </mxCell>
        <mxCell id="xGkH-jB9jSA_RrB5lTJx-55" value="0,N" style="edgeLabel;html=1;align=center;verticalAlign=middle;resizable=0;points=[];" vertex="1" connectable="0" parent="xGkH-jB9jSA_RrB5lTJx-54">
          <mxGeometry x="0.8028" y="3" relative="1" as="geometry">
            <mxPoint as="offset" />
          </mxGeometry>
        </mxCell>
        <mxCell id="xGkH-jB9jSA_RrB5lTJx-56" style="edgeStyle=orthogonalEdgeStyle;orthogonalLoop=1;jettySize=auto;html=1;exitX=0.5;exitY=0;exitDx=0;exitDy=0;entryX=0.5;entryY=1;entryDx=0;entryDy=0;" edge="1" parent="1" source="xGkH-jB9jSA_RrB5lTJx-58" target="xGkH-jB9jSA_RrB5lTJx-7">
          <mxGeometry relative="1" as="geometry" />
        </mxCell>
        <mxCell id="xGkH-jB9jSA_RrB5lTJx-57" value="1,1" style="edgeLabel;html=1;align=center;verticalAlign=middle;resizable=0;points=[];" vertex="1" connectable="0" parent="xGkH-jB9jSA_RrB5lTJx-56">
          <mxGeometry x="0.5949" y="-2" relative="1" as="geometry">
            <mxPoint as="offset" />
          </mxGeometry>
        </mxCell>
        <mxCell id="xGkH-jB9jSA_RrB5lTJx-58" value="è un" style="shape=rhombus;perimeter=rhombusPerimeter;whiteSpace=wrap;html=1;align=center;" vertex="1" parent="1">
          <mxGeometry x="400" y="530" width="100" height="40" as="geometry" />
        </mxCell>
        <mxCell id="xGkH-jB9jSA_RrB5lTJx-59" style="edgeStyle=orthogonalEdgeStyle;orthogonalLoop=1;jettySize=auto;html=1;exitX=0.5;exitY=0;exitDx=0;exitDy=0;entryX=0.5;entryY=1;entryDx=0;entryDy=0;" edge="1" parent="1" source="xGkH-jB9jSA_RrB5lTJx-61" target="xGkH-jB9jSA_RrB5lTJx-1">
          <mxGeometry relative="1" as="geometry" />
        </mxCell>
        <mxCell id="xGkH-jB9jSA_RrB5lTJx-60" value="1,N" style="edgeLabel;html=1;align=center;verticalAlign=middle;resizable=0;points=[];" vertex="1" connectable="0" parent="xGkH-jB9jSA_RrB5lTJx-59">
          <mxGeometry x="0.4067" y="-2" relative="1" as="geometry">
            <mxPoint as="offset" />
          </mxGeometry>
        </mxCell>
        <mxCell id="xGkH-jB9jSA_RrB5lTJx-61" value="offre" style="shape=rhombus;perimeter=rhombusPerimeter;whiteSpace=wrap;html=1;align=center;" vertex="1" parent="1">
          <mxGeometry x="425" y="350" width="100" height="40" as="geometry" />
        </mxCell>
        <mxCell id="xGkH-jB9jSA_RrB5lTJx-62" style="edgeStyle=orthogonalEdgeStyle;orthogonalLoop=1;jettySize=auto;html=1;exitX=0.5;exitY=1;exitDx=0;exitDy=0;entryX=0.57;entryY=0;entryDx=0;entryDy=0;entryPerimeter=0;" edge="1" parent="1" source="xGkH-jB9jSA_RrB5lTJx-61" target="xGkH-jB9jSA_RrB5lTJx-7">
          <mxGeometry relative="1" as="geometry" />
        </mxCell>
        <mxCell id="xGkH-jB9jSA_RrB5lTJx-63" value="1,1" style="edgeLabel;html=1;align=center;verticalAlign=middle;resizable=0;points=[];" vertex="1" connectable="0" parent="xGkH-jB9jSA_RrB5lTJx-62">
          <mxGeometry x="0.6716" y="1" relative="1" as="geometry">
            <mxPoint as="offset" />
          </mxGeometry>
        </mxCell>
        <mxCell id="xGkH-jB9jSA_RrB5lTJx-64" value="tipo" style="text;html=1;align=center;verticalAlign=middle;resizable=0;points=[];autosize=1;strokeColor=none;fillColor=none;" vertex="1" parent="1">
          <mxGeometry x="670" y="400" width="40" height="30" as="geometry" />
        </mxCell>
        <mxCell id="xGkH-jB9jSA_RrB5lTJx-65" value="linea" style="text;html=1;align=center;verticalAlign=middle;resizable=0;points=[];autosize=1;strokeColor=none;fillColor=none;" vertex="1" parent="1">
          <mxGeometry x="710" y="390" width="50" height="30" as="geometry" />
        </mxCell>
        <mxCell id="xGkH-jB9jSA_RrB5lTJx-66" value="costo per persona" style="text;html=1;align=center;verticalAlign=middle;resizable=0;points=[];autosize=1;strokeColor=none;fillColor=none;" vertex="1" parent="1">
          <mxGeometry x="740" y="355" width="120" height="30" as="geometry" />
        </mxCell>
        <mxCell id="xGkH-jB9jSA_RrB5lTJx-67" style="edgeStyle=orthogonalEdgeStyle;orthogonalLoop=1;jettySize=auto;html=1;exitX=0.25;exitY=0;exitDx=0;exitDy=0;entryX=0.607;entryY=1.09;entryDx=0;entryDy=0;entryPerimeter=0;" edge="1" parent="1" source="xGkH-jB9jSA_RrB5lTJx-8" target="xGkH-jB9jSA_RrB5lTJx-64">
          <mxGeometry relative="1" as="geometry" />
        </mxCell>
        <mxCell id="xGkH-jB9jSA_RrB5lTJx-68" style="edgeStyle=orthogonalEdgeStyle;orthogonalLoop=1;jettySize=auto;html=1;exitX=1;exitY=0;exitDx=0;exitDy=0;entryX=0.252;entryY=1.048;entryDx=0;entryDy=0;entryPerimeter=0;" edge="1" parent="1" source="xGkH-jB9jSA_RrB5lTJx-8" target="xGkH-jB9jSA_RrB5lTJx-66">
          <mxGeometry relative="1" as="geometry" />
        </mxCell>
        <mxCell id="xGkH-jB9jSA_RrB5lTJx-69" style="edgeStyle=orthogonalEdgeStyle;orthogonalLoop=1;jettySize=auto;html=1;exitX=0.75;exitY=0;exitDx=0;exitDy=0;entryX=0.726;entryY=1.081;entryDx=0;entryDy=0;entryPerimeter=0;" edge="1" parent="1" source="xGkH-jB9jSA_RrB5lTJx-8" target="xGkH-jB9jSA_RrB5lTJx-65">
          <mxGeometry relative="1" as="geometry" />
        </mxCell>
        <mxCell id="xGkH-jB9jSA_RrB5lTJx-70" value="frequenza" style="text;html=1;align=center;verticalAlign=middle;resizable=0;points=[];autosize=1;strokeColor=none;fillColor=none;" vertex="1" parent="1">
          <mxGeometry x="520" y="510" width="80" height="30" as="geometry" />
        </mxCell>
        <mxCell id="xGkH-jB9jSA_RrB5lTJx-71" value="intervallo" style="text;html=1;align=center;verticalAlign=middle;resizable=0;points=[];autosize=1;strokeColor=none;fillColor=none;" vertex="1" parent="1">
          <mxGeometry x="520" y="550" width="70" height="30" as="geometry" />
        </mxCell>
        <mxCell id="xGkH-jB9jSA_RrB5lTJx-72" style="edgeStyle=orthogonalEdgeStyle;orthogonalLoop=1;jettySize=auto;html=1;exitX=0;exitY=1;exitDx=0;exitDy=0;entryX=1.037;entryY=0.643;entryDx=0;entryDy=0;entryPerimeter=0;" edge="1" parent="1" source="xGkH-jB9jSA_RrB5lTJx-37" target="xGkH-jB9jSA_RrB5lTJx-71">
          <mxGeometry relative="1" as="geometry">
            <Array as="points">
              <mxPoint x="625" y="569" />
            </Array>
          </mxGeometry>
        </mxCell>
        <mxCell id="xGkH-jB9jSA_RrB5lTJx-73" style="edgeStyle=orthogonalEdgeStyle;orthogonalLoop=1;jettySize=auto;html=1;exitX=0;exitY=0;exitDx=0;exitDy=0;entryX=1.007;entryY=0.567;entryDx=0;entryDy=0;entryPerimeter=0;" edge="1" parent="1" source="xGkH-jB9jSA_RrB5lTJx-37" target="xGkH-jB9jSA_RrB5lTJx-70">
          <mxGeometry relative="1" as="geometry">
            <Array as="points">
              <mxPoint x="625" y="525" />
              <mxPoint x="601" y="525" />
            </Array>
          </mxGeometry>
        </mxCell>
        <mxCell id="xGkH-jB9jSA_RrB5lTJx-74" value="long" style="text;html=1;align=center;verticalAlign=middle;resizable=0;points=[];autosize=1;strokeColor=none;fillColor=none;" vertex="1" parent="1">
          <mxGeometry x="670" y="590" width="50" height="30" as="geometry" />
        </mxCell>
        <mxCell id="xGkH-jB9jSA_RrB5lTJx-75" value="lat" style="text;html=1;align=center;verticalAlign=middle;resizable=0;points=[];autosize=1;strokeColor=none;fillColor=none;" vertex="1" parent="1">
          <mxGeometry x="700" y="610" width="40" height="30" as="geometry" />
        </mxCell>
        <mxCell id="xGkH-jB9jSA_RrB5lTJx-76" value="posti disponibili" style="text;html=1;align=center;verticalAlign=middle;resizable=0;points=[];autosize=1;strokeColor=none;fillColor=none;" vertex="1" parent="1">
          <mxGeometry x="705" y="630" width="100" height="30" as="geometry" />
        </mxCell>
        <mxCell id="xGkH-jB9jSA_RrB5lTJx-77" value="costo orario" style="text;html=1;align=center;verticalAlign=middle;resizable=0;points=[];autosize=1;strokeColor=none;fillColor=none;" vertex="1" parent="1">
          <mxGeometry x="675" y="660" width="90" height="30" as="geometry" />
        </mxCell>
        <mxCell id="xGkH-jB9jSA_RrB5lTJx-78" value="posti occupati" style="text;html=1;align=center;verticalAlign=middle;resizable=0;points=[];autosize=1;strokeColor=none;fillColor=none;" vertex="1" parent="1">
          <mxGeometry x="650" y="690" width="100" height="30" as="geometry" />
        </mxCell>
        <mxCell id="xGkH-jB9jSA_RrB5lTJx-79" style="edgeStyle=orthogonalEdgeStyle;orthogonalLoop=1;jettySize=auto;html=1;exitX=1;exitY=0.5;exitDx=0;exitDy=0;entryX=-0.068;entryY=0.662;entryDx=0;entryDy=0;entryPerimeter=0;" edge="1" parent="1" source="xGkH-jB9jSA_RrB5lTJx-17" target="xGkH-jB9jSA_RrB5lTJx-75">
          <mxGeometry relative="1" as="geometry" />
        </mxCell>
        <mxCell id="xGkH-jB9jSA_RrB5lTJx-80" style="edgeStyle=orthogonalEdgeStyle;orthogonalLoop=1;jettySize=auto;html=1;exitX=1;exitY=0;exitDx=0;exitDy=0;entryX=-0.003;entryY=0.738;entryDx=0;entryDy=0;entryPerimeter=0;" edge="1" parent="1" source="xGkH-jB9jSA_RrB5lTJx-17" target="xGkH-jB9jSA_RrB5lTJx-74">
          <mxGeometry relative="1" as="geometry" />
        </mxCell>
        <mxCell id="xGkH-jB9jSA_RrB5lTJx-81" style="edgeStyle=orthogonalEdgeStyle;orthogonalLoop=1;jettySize=auto;html=1;exitX=1;exitY=0.75;exitDx=0;exitDy=0;entryX=0.014;entryY=0.471;entryDx=0;entryDy=0;entryPerimeter=0;" edge="1" parent="1" source="xGkH-jB9jSA_RrB5lTJx-17" target="xGkH-jB9jSA_RrB5lTJx-76">
          <mxGeometry relative="1" as="geometry" />
        </mxCell>
        <mxCell id="xGkH-jB9jSA_RrB5lTJx-82" style="edgeStyle=orthogonalEdgeStyle;orthogonalLoop=1;jettySize=auto;html=1;exitX=1;exitY=1;exitDx=0;exitDy=0;entryX=-0.013;entryY=0.614;entryDx=0;entryDy=0;entryPerimeter=0;" edge="1" parent="1" source="xGkH-jB9jSA_RrB5lTJx-17" target="xGkH-jB9jSA_RrB5lTJx-77">
          <mxGeometry relative="1" as="geometry">
            <Array as="points">
              <mxPoint x="650" y="670" />
              <mxPoint x="674" y="670" />
            </Array>
          </mxGeometry>
        </mxCell>
        <mxCell id="xGkH-jB9jSA_RrB5lTJx-83" style="edgeStyle=orthogonalEdgeStyle;orthogonalLoop=1;jettySize=auto;html=1;exitX=0.75;exitY=1;exitDx=0;exitDy=0;entryX=0.01;entryY=0.49;entryDx=0;entryDy=0;entryPerimeter=0;" edge="1" parent="1" source="xGkH-jB9jSA_RrB5lTJx-17" target="xGkH-jB9jSA_RrB5lTJx-78">
          <mxGeometry relative="1" as="geometry" />
        </mxCell>
        <mxCell id="xGkH-jB9jSA_RrB5lTJx-84" value="" style="shape=waypoint;sketch=0;size=6;pointerEvents=1;points=[];fillColor=none;resizable=0;rotatable=0;perimeter=centerPerimeter;snapToPoint=1;" vertex="1" parent="1">
          <mxGeometry x="670" y="595" width="20" height="20" as="geometry" />
        </mxCell>
        <mxCell id="xGkH-jB9jSA_RrB5lTJx-85" value="" style="shape=waypoint;sketch=0;size=6;pointerEvents=1;points=[];fillColor=none;resizable=0;rotatable=0;perimeter=centerPerimeter;snapToPoint=1;" vertex="1" parent="1">
          <mxGeometry x="690" y="620" width="20" height="20" as="geometry" />
        </mxCell>
        <mxCell id="xGkH-jB9jSA_RrB5lTJx-86" value="tipo" style="text;html=1;align=center;verticalAlign=middle;resizable=0;points=[];autosize=1;strokeColor=none;fillColor=none;" vertex="1" parent="1">
          <mxGeometry x="410" y="630" width="40" height="30" as="geometry" />
        </mxCell>
        <mxCell id="xGkH-jB9jSA_RrB5lTJx-87" value="gestore" style="text;html=1;align=center;verticalAlign=middle;resizable=0;points=[];autosize=1;strokeColor=none;fillColor=none;" vertex="1" parent="1">
          <mxGeometry x="400" y="660" width="60" height="30" as="geometry" />
        </mxCell>
        <mxCell id="xGkH-jB9jSA_RrB5lTJx-88" style="edgeStyle=orthogonalEdgeStyle;orthogonalLoop=1;jettySize=auto;html=1;exitX=1;exitY=1;exitDx=0;exitDy=0;entryX=0.002;entryY=0.633;entryDx=0;entryDy=0;entryPerimeter=0;" edge="1" parent="1" source="xGkH-jB9jSA_RrB5lTJx-11" target="xGkH-jB9jSA_RrB5lTJx-87">
          <mxGeometry relative="1" as="geometry" />
        </mxCell>
        <mxCell id="xGkH-jB9jSA_RrB5lTJx-89" style="edgeStyle=orthogonalEdgeStyle;orthogonalLoop=1;jettySize=auto;html=1;exitX=1;exitY=1;exitDx=0;exitDy=0;entryX=0.025;entryY=0.357;entryDx=0;entryDy=0;entryPerimeter=0;" edge="1" parent="1" source="xGkH-jB9jSA_RrB5lTJx-11" target="xGkH-jB9jSA_RrB5lTJx-86">
          <mxGeometry relative="1" as="geometry" />
        </mxCell>
        <mxCell id="xGkH-jB9jSA_RrB5lTJx-90" value="posti disponibili" style="text;html=1;align=center;verticalAlign=middle;resizable=0;points=[];autosize=1;strokeColor=none;fillColor=none;" vertex="1" parent="1">
          <mxGeometry x="505" y="410" width="100" height="30" as="geometry" />
        </mxCell>
        <mxCell id="xGkH-jB9jSA_RrB5lTJx-91" style="edgeStyle=orthogonalEdgeStyle;orthogonalLoop=1;jettySize=auto;html=1;exitX=1;exitY=0.5;exitDx=0;exitDy=0;entryX=0.403;entryY=1.1;entryDx=0;entryDy=0;entryPerimeter=0;" edge="1" parent="1" source="xGkH-jB9jSA_RrB5lTJx-7" target="xGkH-jB9jSA_RrB5lTJx-90">
          <mxGeometry relative="1" as="geometry" />
        </mxCell>
        <mxCell id="xGkH-jB9jSA_RrB5lTJx-92" value="tipo merce" style="text;html=1;align=center;verticalAlign=middle;resizable=0;points=[];autosize=1;strokeColor=none;fillColor=none;" vertex="1" parent="1">
          <mxGeometry x="290" y="400" width="80" height="30" as="geometry" />
        </mxCell>
        <mxCell id="xGkH-jB9jSA_RrB5lTJx-93" style="edgeStyle=orthogonalEdgeStyle;orthogonalLoop=1;jettySize=auto;html=1;exitX=0.5;exitY=0;exitDx=0;exitDy=0;entryX=0.491;entryY=0.976;entryDx=0;entryDy=0;entryPerimeter=0;" edge="1" parent="1" source="xGkH-jB9jSA_RrB5lTJx-6" target="xGkH-jB9jSA_RrB5lTJx-92">
          <mxGeometry relative="1" as="geometry" />
        </mxCell>
        <mxCell id="xGkH-jB9jSA_RrB5lTJx-94" value="tipo cucina" style="text;html=1;align=center;verticalAlign=middle;resizable=0;points=[];autosize=1;strokeColor=none;fillColor=none;" vertex="1" parent="1">
          <mxGeometry x="140" y="400" width="80" height="30" as="geometry" />
        </mxCell>
        <mxCell id="xGkH-jB9jSA_RrB5lTJx-95" value="tempo medio attesa" style="text;html=1;align=center;verticalAlign=middle;resizable=0;points=[];autosize=1;strokeColor=none;fillColor=none;" vertex="1" parent="1">
          <mxGeometry y="530" width="130" height="30" as="geometry" />
        </mxCell>
        <mxCell id="xGkH-jB9jSA_RrB5lTJx-96" value="numero addetti richiesti" style="text;html=1;align=center;verticalAlign=middle;resizable=0;points=[];autosize=1;strokeColor=none;fillColor=none;" vertex="1" parent="1">
          <mxGeometry x="60" y="560" width="150" height="30" as="geometry" />
        </mxCell>
        <mxCell id="xGkH-jB9jSA_RrB5lTJx-97" style="edgeStyle=orthogonalEdgeStyle;orthogonalLoop=1;jettySize=auto;html=1;exitX=0.75;exitY=0;exitDx=0;exitDy=0;entryX=0.294;entryY=0.995;entryDx=0;entryDy=0;entryPerimeter=0;" edge="1" parent="1" source="xGkH-jB9jSA_RrB5lTJx-14" target="xGkH-jB9jSA_RrB5lTJx-96">
          <mxGeometry relative="1" as="geometry" />
        </mxCell>
        <mxCell id="xGkH-jB9jSA_RrB5lTJx-98" style="edgeStyle=orthogonalEdgeStyle;orthogonalLoop=1;jettySize=auto;html=1;exitX=0.25;exitY=0;exitDx=0;exitDy=0;entryX=0.427;entryY=1.081;entryDx=0;entryDy=0;entryPerimeter=0;" edge="1" parent="1" source="xGkH-jB9jSA_RrB5lTJx-14" target="xGkH-jB9jSA_RrB5lTJx-95">
          <mxGeometry relative="1" as="geometry" />
        </mxCell>
        <mxCell id="xGkH-jB9jSA_RrB5lTJx-99" style="edgeStyle=orthogonalEdgeStyle;orthogonalLoop=1;jettySize=auto;html=1;exitX=0.75;exitY=1;exitDx=0;exitDy=0;entryX=0.5;entryY=0;entryDx=0;entryDy=0;" edge="1" parent="1" source="xGkH-jB9jSA_RrB5lTJx-101" target="xGkH-jB9jSA_RrB5lTJx-133">
          <mxGeometry relative="1" as="geometry" />
        </mxCell>
        <mxCell id="xGkH-jB9jSA_RrB5lTJx-100" value="0,N" style="edgeLabel;html=1;align=center;verticalAlign=middle;resizable=0;points=[];" vertex="1" connectable="0" parent="xGkH-jB9jSA_RrB5lTJx-99">
          <mxGeometry x="-0.7285" y="1" relative="1" as="geometry">
            <mxPoint as="offset" />
          </mxGeometry>
        </mxCell>
        <mxCell id="xGkH-jB9jSA_RrB5lTJx-198" style="edgeStyle=orthogonalEdgeStyle;rounded=0;orthogonalLoop=1;jettySize=auto;html=1;exitX=1;exitY=0.5;exitDx=0;exitDy=0;entryX=0;entryY=0.5;entryDx=0;entryDy=0;" edge="1" parent="1" source="xGkH-jB9jSA_RrB5lTJx-101" target="xGkH-jB9jSA_RrB5lTJx-197">
          <mxGeometry relative="1" as="geometry" />
        </mxCell>
        <mxCell id="xGkH-jB9jSA_RrB5lTJx-200" value="1,N" style="edgeLabel;html=1;align=center;verticalAlign=middle;resizable=0;points=[];" vertex="1" connectable="0" parent="xGkH-jB9jSA_RrB5lTJx-198">
          <mxGeometry x="-0.9509" y="-4" relative="1" as="geometry">
            <mxPoint as="offset" />
          </mxGeometry>
        </mxCell>
        <mxCell id="xGkH-jB9jSA_RrB5lTJx-101" value="Volo" style="whiteSpace=wrap;html=1;align=center;rounded=0;" vertex="1" parent="1">
          <mxGeometry x="310" y="-368" width="100" height="40" as="geometry" />
        </mxCell>
        <mxCell id="xGkH-jB9jSA_RrB5lTJx-102" value="" style="edgeStyle=orthogonalEdgeStyle;orthogonalLoop=1;jettySize=auto;html=1;" edge="1" parent="1" source="xGkH-jB9jSA_RrB5lTJx-104" target="xGkH-jB9jSA_RrB5lTJx-146">
          <mxGeometry relative="1" as="geometry" />
        </mxCell>
        <mxCell id="xGkH-jB9jSA_RrB5lTJx-103" style="edgeStyle=orthogonalEdgeStyle;orthogonalLoop=1;jettySize=auto;html=1;exitX=0.5;exitY=1;exitDx=0;exitDy=0;entryX=0;entryY=0;entryDx=0;entryDy=0;" edge="1" parent="1" source="xGkH-jB9jSA_RrB5lTJx-104" target="xGkH-jB9jSA_RrB5lTJx-155">
          <mxGeometry relative="1" as="geometry" />
        </mxCell>
        <mxCell id="xGkH-jB9jSA_RrB5lTJx-104" value="Pacco" style="whiteSpace=wrap;html=1;rounded=0;" vertex="1" parent="1">
          <mxGeometry x="170" y="-178" width="120" height="40" as="geometry" />
        </mxCell>
        <mxCell id="xGkH-jB9jSA_RrB5lTJx-106" value="" style="edgeStyle=orthogonalEdgeStyle;orthogonalLoop=1;jettySize=auto;html=1;" edge="1" parent="1" source="xGkH-jB9jSA_RrB5lTJx-109" target="xGkH-jB9jSA_RrB5lTJx-154">
          <mxGeometry relative="1" as="geometry" />
        </mxCell>
        <mxCell id="xGkH-jB9jSA_RrB5lTJx-107" style="edgeStyle=orthogonalEdgeStyle;orthogonalLoop=1;jettySize=auto;html=1;exitX=0;exitY=1;exitDx=0;exitDy=0;entryX=1;entryY=0.5;entryDx=0;entryDy=0;" edge="1" parent="1" source="xGkH-jB9jSA_RrB5lTJx-109" target="xGkH-jB9jSA_RrB5lTJx-155">
          <mxGeometry relative="1" as="geometry" />
        </mxCell>
        <mxCell id="xGkH-jB9jSA_RrB5lTJx-108" value="" style="edgeStyle=orthogonalEdgeStyle;orthogonalLoop=1;jettySize=auto;html=1;" edge="1" parent="1" source="xGkH-jB9jSA_RrB5lTJx-109" target="xGkH-jB9jSA_RrB5lTJx-139">
          <mxGeometry relative="1" as="geometry" />
        </mxCell>
        <mxCell id="xGkH-jB9jSA_RrB5lTJx-109" value="Bagaglio" style="whiteSpace=wrap;html=1;rounded=0;" vertex="1" parent="1">
          <mxGeometry x="520" y="12" width="120" height="40" as="geometry" />
        </mxCell>
        <mxCell id="xGkH-jB9jSA_RrB5lTJx-110" style="edgeStyle=orthogonalEdgeStyle;orthogonalLoop=1;jettySize=auto;html=1;exitX=0.75;exitY=1;exitDx=0;exitDy=0;entryX=0.5;entryY=0;entryDx=0;entryDy=0;" edge="1" parent="1" source="xGkH-jB9jSA_RrB5lTJx-119" target="xGkH-jB9jSA_RrB5lTJx-139">
          <mxGeometry relative="1" as="geometry" />
        </mxCell>
        <mxCell id="xGkH-jB9jSA_RrB5lTJx-111" value="1,N" style="edgeLabel;html=1;align=center;verticalAlign=middle;resizable=0;points=[];" vertex="1" connectable="0" parent="xGkH-jB9jSA_RrB5lTJx-110">
          <mxGeometry x="-0.7636" y="-1" relative="1" as="geometry">
            <mxPoint as="offset" />
          </mxGeometry>
        </mxCell>
        <mxCell id="xGkH-jB9jSA_RrB5lTJx-112" style="edgeStyle=orthogonalEdgeStyle;orthogonalLoop=1;jettySize=auto;html=1;exitX=0.25;exitY=1;exitDx=0;exitDy=0;entryX=0.5;entryY=0;entryDx=0;entryDy=0;" edge="1" parent="1" source="xGkH-jB9jSA_RrB5lTJx-119" target="xGkH-jB9jSA_RrB5lTJx-136">
          <mxGeometry relative="1" as="geometry" />
        </mxCell>
        <mxCell id="xGkH-jB9jSA_RrB5lTJx-113" value="1,1" style="edgeLabel;html=1;align=center;verticalAlign=middle;resizable=0;points=[];" vertex="1" connectable="0" parent="xGkH-jB9jSA_RrB5lTJx-112">
          <mxGeometry x="-0.7948" y="1" relative="1" as="geometry">
            <mxPoint as="offset" />
          </mxGeometry>
        </mxCell>
        <mxCell id="xGkH-jB9jSA_RrB5lTJx-114" style="edgeStyle=orthogonalEdgeStyle;orthogonalLoop=1;jettySize=auto;html=1;exitX=1;exitY=0.5;exitDx=0;exitDy=0;entryX=0.5;entryY=0;entryDx=0;entryDy=0;" edge="1" parent="1" source="xGkH-jB9jSA_RrB5lTJx-119" target="xGkH-jB9jSA_RrB5lTJx-142">
          <mxGeometry relative="1" as="geometry" />
        </mxCell>
        <mxCell id="xGkH-jB9jSA_RrB5lTJx-115" value="1,1" style="edgeLabel;html=1;align=center;verticalAlign=middle;resizable=0;points=[];" vertex="1" connectable="0" parent="xGkH-jB9jSA_RrB5lTJx-114">
          <mxGeometry x="-0.9017" relative="1" as="geometry">
            <mxPoint as="offset" />
          </mxGeometry>
        </mxCell>
        <mxCell id="xGkH-jB9jSA_RrB5lTJx-116" style="edgeStyle=orthogonalEdgeStyle;orthogonalLoop=1;jettySize=auto;html=1;exitX=1;exitY=0.25;exitDx=0;exitDy=0;entryX=0.5;entryY=1;entryDx=0;entryDy=0;" edge="1" parent="1" source="xGkH-jB9jSA_RrB5lTJx-119" target="xGkH-jB9jSA_RrB5lTJx-143">
          <mxGeometry relative="1" as="geometry" />
        </mxCell>
        <mxCell id="xGkH-jB9jSA_RrB5lTJx-117" value="&lt;div&gt;1,1&lt;/div&gt;" style="edgeLabel;html=1;align=center;verticalAlign=middle;resizable=0;points=[];" vertex="1" connectable="0" parent="xGkH-jB9jSA_RrB5lTJx-116">
          <mxGeometry x="-0.9232" y="1" relative="1" as="geometry">
            <mxPoint as="offset" />
          </mxGeometry>
        </mxCell>
        <mxCell id="xGkH-jB9jSA_RrB5lTJx-118" value="" style="edgeStyle=orthogonalEdgeStyle;orthogonalLoop=1;jettySize=auto;html=1;" edge="1" parent="1" source="xGkH-jB9jSA_RrB5lTJx-119" target="xGkH-jB9jSA_RrB5lTJx-182">
          <mxGeometry relative="1" as="geometry" />
        </mxCell>
        <mxCell id="xGkH-jB9jSA_RrB5lTJx-119" value="Passeggero" style="whiteSpace=wrap;html=1;rounded=0;" vertex="1" parent="1">
          <mxGeometry x="420" y="-178" width="120" height="40" as="geometry" />
        </mxCell>
        <mxCell id="xGkH-jB9jSA_RrB5lTJx-120" value="" style="edgeStyle=orthogonalEdgeStyle;orthogonalLoop=1;jettySize=auto;html=1;" edge="1" parent="1" source="xGkH-jB9jSA_RrB5lTJx-123" target="xGkH-jB9jSA_RrB5lTJx-164">
          <mxGeometry relative="1" as="geometry" />
        </mxCell>
        <mxCell id="xGkH-jB9jSA_RrB5lTJx-121" value="" style="edgeStyle=orthogonalEdgeStyle;orthogonalLoop=1;jettySize=auto;html=1;" edge="1" parent="1" source="xGkH-jB9jSA_RrB5lTJx-123" target="xGkH-jB9jSA_RrB5lTJx-165">
          <mxGeometry relative="1" as="geometry" />
        </mxCell>
        <mxCell id="xGkH-jB9jSA_RrB5lTJx-122" style="edgeStyle=orthogonalEdgeStyle;orthogonalLoop=1;jettySize=auto;html=1;exitX=0.75;exitY=0;exitDx=0;exitDy=0;" edge="1" parent="1" source="xGkH-jB9jSA_RrB5lTJx-123">
          <mxGeometry relative="1" as="geometry">
            <mxPoint x="830" y="-438" as="targetPoint" />
          </mxGeometry>
        </mxCell>
        <mxCell id="xGkH-jB9jSA_RrB5lTJx-123" value="Documento" style="whiteSpace=wrap;html=1;rounded=0;" vertex="1" parent="1">
          <mxGeometry x="740" y="-408" width="120" height="40" as="geometry" />
        </mxCell>
        <mxCell id="xGkH-jB9jSA_RrB5lTJx-124" value="" style="edgeStyle=orthogonalEdgeStyle;orthogonalLoop=1;jettySize=auto;html=1;" edge="1" parent="1" source="xGkH-jB9jSA_RrB5lTJx-125" target="xGkH-jB9jSA_RrB5lTJx-168">
          <mxGeometry relative="1" as="geometry" />
        </mxCell>
        <mxCell id="xGkH-jB9jSA_RrB5lTJx-125" value="Persona" style="whiteSpace=wrap;html=1;rounded=0;" vertex="1" parent="1">
          <mxGeometry x="730" y="12" width="120" height="40" as="geometry" />
        </mxCell>
        <mxCell id="xGkH-jB9jSA_RrB5lTJx-126" style="edgeStyle=orthogonalEdgeStyle;orthogonalLoop=1;jettySize=auto;html=1;exitX=0.5;exitY=1;exitDx=0;exitDy=0;entryX=0.5;entryY=0;entryDx=0;entryDy=0;" edge="1" parent="1" source="xGkH-jB9jSA_RrB5lTJx-130" target="xGkH-jB9jSA_RrB5lTJx-104">
          <mxGeometry relative="1" as="geometry" />
        </mxCell>
        <mxCell id="xGkH-jB9jSA_RrB5lTJx-127" value="1,1" style="edgeLabel;html=1;align=center;verticalAlign=middle;resizable=0;points=[];" vertex="1" connectable="0" parent="xGkH-jB9jSA_RrB5lTJx-126">
          <mxGeometry x="0.7937" y="-1" relative="1" as="geometry">
            <mxPoint as="offset" />
          </mxGeometry>
        </mxCell>
        <mxCell id="xGkH-jB9jSA_RrB5lTJx-128" style="edgeStyle=orthogonalEdgeStyle;orthogonalLoop=1;jettySize=auto;html=1;exitX=0.5;exitY=0;exitDx=0;exitDy=0;entryX=0.25;entryY=1;entryDx=0;entryDy=0;" edge="1" parent="1" source="xGkH-jB9jSA_RrB5lTJx-130" target="xGkH-jB9jSA_RrB5lTJx-101">
          <mxGeometry relative="1" as="geometry" />
        </mxCell>
        <mxCell id="xGkH-jB9jSA_RrB5lTJx-129" value="0,N" style="edgeLabel;html=1;align=center;verticalAlign=middle;resizable=0;points=[];" vertex="1" connectable="0" parent="xGkH-jB9jSA_RrB5lTJx-128">
          <mxGeometry x="0.8088" relative="1" as="geometry">
            <mxPoint as="offset" />
          </mxGeometry>
        </mxCell>
        <mxCell id="xGkH-jB9jSA_RrB5lTJx-130" value="Trasporta" style="shape=rhombus;perimeter=rhombusPerimeter;whiteSpace=wrap;html=1;align=center;" vertex="1" parent="1">
          <mxGeometry x="210" y="-288" width="100" height="50" as="geometry" />
        </mxCell>
        <mxCell id="xGkH-jB9jSA_RrB5lTJx-131" style="edgeStyle=orthogonalEdgeStyle;orthogonalLoop=1;jettySize=auto;html=1;exitX=0.5;exitY=1;exitDx=0;exitDy=0;entryX=0.164;entryY=-0.061;entryDx=0;entryDy=0;entryPerimeter=0;" edge="1" parent="1" source="xGkH-jB9jSA_RrB5lTJx-133" target="xGkH-jB9jSA_RrB5lTJx-119">
          <mxGeometry relative="1" as="geometry" />
        </mxCell>
        <mxCell id="xGkH-jB9jSA_RrB5lTJx-132" value="1,1" style="edgeLabel;html=1;align=center;verticalAlign=middle;resizable=0;points=[];" vertex="1" connectable="0" parent="xGkH-jB9jSA_RrB5lTJx-131">
          <mxGeometry x="0.7896" y="-1" relative="1" as="geometry">
            <mxPoint as="offset" />
          </mxGeometry>
        </mxCell>
        <mxCell id="xGkH-jB9jSA_RrB5lTJx-133" value="Trasporta" style="shape=rhombus;perimeter=rhombusPerimeter;whiteSpace=wrap;html=1;align=center;" vertex="1" parent="1">
          <mxGeometry x="355" y="-288" width="100" height="50" as="geometry" />
        </mxCell>
        <mxCell id="xGkH-jB9jSA_RrB5lTJx-134" style="edgeStyle=orthogonalEdgeStyle;orthogonalLoop=1;jettySize=auto;html=1;exitX=0.5;exitY=1;exitDx=0;exitDy=0;entryX=0.5;entryY=0;entryDx=0;entryDy=0;" edge="1" parent="1" source="xGkH-jB9jSA_RrB5lTJx-136" target="xGkH-jB9jSA_RrB5lTJx-1">
          <mxGeometry relative="1" as="geometry">
            <mxPoint x="410" y="12" as="targetPoint" />
          </mxGeometry>
        </mxCell>
        <mxCell id="xGkH-jB9jSA_RrB5lTJx-135" value="0,N" style="edgeLabel;html=1;align=center;verticalAlign=middle;resizable=0;points=[];" vertex="1" connectable="0" parent="xGkH-jB9jSA_RrB5lTJx-134">
          <mxGeometry x="0.5371" y="1" relative="1" as="geometry">
            <mxPoint as="offset" />
          </mxGeometry>
        </mxCell>
        <mxCell id="xGkH-jB9jSA_RrB5lTJx-136" value="Cliente" style="shape=rhombus;perimeter=rhombusPerimeter;whiteSpace=wrap;html=1;align=center;" vertex="1" parent="1">
          <mxGeometry x="370" y="12" width="100" height="50" as="geometry" />
        </mxCell>
        <mxCell id="xGkH-jB9jSA_RrB5lTJx-137" style="edgeStyle=orthogonalEdgeStyle;orthogonalLoop=1;jettySize=auto;html=1;exitX=0.5;exitY=1;exitDx=0;exitDy=0;entryX=0.5;entryY=0;entryDx=0;entryDy=0;" edge="1" parent="1" source="xGkH-jB9jSA_RrB5lTJx-139" target="xGkH-jB9jSA_RrB5lTJx-109">
          <mxGeometry relative="1" as="geometry" />
        </mxCell>
        <mxCell id="xGkH-jB9jSA_RrB5lTJx-138" value="1,1" style="edgeLabel;html=1;align=center;verticalAlign=middle;resizable=0;points=[];" vertex="1" connectable="0" parent="xGkH-jB9jSA_RrB5lTJx-137">
          <mxGeometry x="0.7381" y="2" relative="1" as="geometry">
            <mxPoint as="offset" />
          </mxGeometry>
        </mxCell>
        <mxCell id="xGkH-jB9jSA_RrB5lTJx-139" value="Trasporta" style="shape=rhombus;perimeter=rhombusPerimeter;whiteSpace=wrap;html=1;align=center;" vertex="1" parent="1">
          <mxGeometry x="520" y="-88" width="100" height="50" as="geometry" />
        </mxCell>
        <mxCell id="xGkH-jB9jSA_RrB5lTJx-140" style="edgeStyle=orthogonalEdgeStyle;orthogonalLoop=1;jettySize=auto;html=1;exitX=0.5;exitY=1;exitDx=0;exitDy=0;entryX=0.25;entryY=0;entryDx=0;entryDy=0;" edge="1" parent="1" source="xGkH-jB9jSA_RrB5lTJx-142" target="xGkH-jB9jSA_RrB5lTJx-125">
          <mxGeometry relative="1" as="geometry" />
        </mxCell>
        <mxCell id="xGkH-jB9jSA_RrB5lTJx-141" value="1,N" style="edgeLabel;html=1;align=center;verticalAlign=middle;resizable=0;points=[];" vertex="1" connectable="0" parent="xGkH-jB9jSA_RrB5lTJx-140">
          <mxGeometry x="0.7619" relative="1" as="geometry">
            <mxPoint as="offset" />
          </mxGeometry>
        </mxCell>
        <mxCell id="xGkH-jB9jSA_RrB5lTJx-142" value="è una" style="shape=rhombus;perimeter=rhombusPerimeter;whiteSpace=wrap;html=1;align=center;" vertex="1" parent="1">
          <mxGeometry x="670" y="-88" width="100" height="50" as="geometry" />
        </mxCell>
        <mxCell id="xGkH-jB9jSA_RrB5lTJx-143" value="Identifica" style="shape=rhombus;perimeter=rhombusPerimeter;whiteSpace=wrap;html=1;align=center;" vertex="1" parent="1">
          <mxGeometry x="740" y="-258" width="100" height="50" as="geometry" />
        </mxCell>
        <mxCell id="xGkH-jB9jSA_RrB5lTJx-144" style="edgeStyle=orthogonalEdgeStyle;orthogonalLoop=1;jettySize=auto;html=1;exitX=0.5;exitY=0;exitDx=0;exitDy=0;entryX=0.417;entryY=0.95;entryDx=0;entryDy=0;entryPerimeter=0;" edge="1" parent="1" source="xGkH-jB9jSA_RrB5lTJx-143" target="xGkH-jB9jSA_RrB5lTJx-123">
          <mxGeometry relative="1" as="geometry" />
        </mxCell>
        <mxCell id="xGkH-jB9jSA_RrB5lTJx-145" value="1,N" style="edgeLabel;html=1;align=center;verticalAlign=middle;resizable=0;points=[];" vertex="1" connectable="0" parent="xGkH-jB9jSA_RrB5lTJx-144">
          <mxGeometry x="0.7781" y="-2" relative="1" as="geometry">
            <mxPoint as="offset" />
          </mxGeometry>
        </mxCell>
        <mxCell id="xGkH-jB9jSA_RrB5lTJx-146" value="" style="shape=waypoint;sketch=0;size=6;pointerEvents=1;points=[];fillColor=default;resizable=0;rotatable=0;perimeter=centerPerimeter;snapToPoint=1;rounded=0;" vertex="1" parent="1">
          <mxGeometry x="140" y="-118" width="20" height="20" as="geometry" />
        </mxCell>
        <mxCell id="xGkH-jB9jSA_RrB5lTJx-147" value="id" style="text;html=1;align=center;verticalAlign=middle;resizable=0;points=[];autosize=1;strokeColor=none;fillColor=none;" vertex="1" parent="1">
          <mxGeometry x="130" y="-98" width="30" height="30" as="geometry" />
        </mxCell>
        <mxCell id="xGkH-jB9jSA_RrB5lTJx-148" value="peso" style="text;html=1;align=center;verticalAlign=middle;resizable=0;points=[];autosize=1;strokeColor=none;fillColor=none;" vertex="1" parent="1">
          <mxGeometry x="150" y="92" width="50" height="30" as="geometry" />
        </mxCell>
        <mxCell id="xGkH-jB9jSA_RrB5lTJx-149" value="altezza" style="text;html=1;align=center;verticalAlign=middle;resizable=0;points=[];autosize=1;strokeColor=none;fillColor=none;" vertex="1" parent="1">
          <mxGeometry x="170" y="122" width="60" height="30" as="geometry" />
        </mxCell>
        <mxCell id="xGkH-jB9jSA_RrB5lTJx-150" value="largezza" style="text;html=1;align=center;verticalAlign=middle;resizable=0;points=[];autosize=1;strokeColor=none;fillColor=none;" vertex="1" parent="1">
          <mxGeometry x="200" y="162" width="70" height="30" as="geometry" />
        </mxCell>
        <mxCell id="xGkH-jB9jSA_RrB5lTJx-151" value="spessore" style="text;html=1;align=center;verticalAlign=middle;resizable=0;points=[];autosize=1;strokeColor=none;fillColor=none;" vertex="1" parent="1">
          <mxGeometry x="325" y="132" width="70" height="30" as="geometry" />
        </mxCell>
        <mxCell id="xGkH-jB9jSA_RrB5lTJx-152" value="contenuto" style="text;html=1;align=center;verticalAlign=middle;resizable=0;points=[];autosize=1;strokeColor=none;fillColor=none;" vertex="1" parent="1">
          <mxGeometry x="290" y="172" width="80" height="30" as="geometry" />
        </mxCell>
        <mxCell id="xGkH-jB9jSA_RrB5lTJx-153" value="stato" style="text;html=1;align=center;verticalAlign=middle;resizable=0;points=[];autosize=1;strokeColor=none;fillColor=none;" vertex="1" parent="1">
          <mxGeometry x="240" y="202" width="50" height="30" as="geometry" />
        </mxCell>
        <mxCell id="xGkH-jB9jSA_RrB5lTJx-154" value="" style="shape=waypoint;sketch=0;size=6;pointerEvents=1;points=[];fillColor=default;resizable=0;rotatable=0;perimeter=centerPerimeter;snapToPoint=1;rounded=0;" vertex="1" parent="1">
          <mxGeometry x="570" y="82" width="20" height="20" as="geometry" />
        </mxCell>
        <mxCell id="xGkH-jB9jSA_RrB5lTJx-155" value="Contenitore" style="ellipse;whiteSpace=wrap;html=1;align=center;" vertex="1" parent="1">
          <mxGeometry x="255" y="72" width="100" height="40" as="geometry" />
        </mxCell>
        <mxCell id="xGkH-jB9jSA_RrB5lTJx-156" style="edgeStyle=orthogonalEdgeStyle;orthogonalLoop=1;jettySize=auto;html=1;exitX=0;exitY=0.5;exitDx=0;exitDy=0;entryX=0.987;entryY=0.494;entryDx=0;entryDy=0;entryPerimeter=0;" edge="1" parent="1" source="xGkH-jB9jSA_RrB5lTJx-155" target="xGkH-jB9jSA_RrB5lTJx-148">
          <mxGeometry relative="1" as="geometry" />
        </mxCell>
        <mxCell id="xGkH-jB9jSA_RrB5lTJx-157" style="edgeStyle=orthogonalEdgeStyle;orthogonalLoop=1;jettySize=auto;html=1;exitX=1;exitY=1;exitDx=0;exitDy=0;entryX=0.447;entryY=0.1;entryDx=0;entryDy=0;entryPerimeter=0;" edge="1" parent="1" source="xGkH-jB9jSA_RrB5lTJx-155" target="xGkH-jB9jSA_RrB5lTJx-151">
          <mxGeometry relative="1" as="geometry" />
        </mxCell>
        <mxCell id="xGkH-jB9jSA_RrB5lTJx-158" style="edgeStyle=orthogonalEdgeStyle;orthogonalLoop=1;jettySize=auto;html=1;exitX=0.5;exitY=1;exitDx=0;exitDy=0;entryX=0.407;entryY=-0.014;entryDx=0;entryDy=0;entryPerimeter=0;" edge="1" parent="1" source="xGkH-jB9jSA_RrB5lTJx-155" target="xGkH-jB9jSA_RrB5lTJx-152">
          <mxGeometry relative="1" as="geometry" />
        </mxCell>
        <mxCell id="xGkH-jB9jSA_RrB5lTJx-159" style="edgeStyle=orthogonalEdgeStyle;orthogonalLoop=1;jettySize=auto;html=1;exitX=0;exitY=1;exitDx=0;exitDy=0;entryX=0.84;entryY=-0.024;entryDx=0;entryDy=0;entryPerimeter=0;" edge="1" parent="1" source="xGkH-jB9jSA_RrB5lTJx-155" target="xGkH-jB9jSA_RrB5lTJx-153">
          <mxGeometry relative="1" as="geometry" />
        </mxCell>
        <mxCell id="xGkH-jB9jSA_RrB5lTJx-160" style="edgeStyle=orthogonalEdgeStyle;orthogonalLoop=1;jettySize=auto;html=1;exitX=0;exitY=1;exitDx=0;exitDy=0;entryX=0.747;entryY=-0.005;entryDx=0;entryDy=0;entryPerimeter=0;" edge="1" parent="1" source="xGkH-jB9jSA_RrB5lTJx-155" target="xGkH-jB9jSA_RrB5lTJx-150">
          <mxGeometry relative="1" as="geometry" />
        </mxCell>
        <mxCell id="xGkH-jB9jSA_RrB5lTJx-161" style="edgeStyle=orthogonalEdgeStyle;orthogonalLoop=1;jettySize=auto;html=1;exitX=0;exitY=0.5;exitDx=0;exitDy=0;entryX=1.048;entryY=0.186;entryDx=0;entryDy=0;entryPerimeter=0;" edge="1" parent="1" source="xGkH-jB9jSA_RrB5lTJx-155" target="xGkH-jB9jSA_RrB5lTJx-149">
          <mxGeometry relative="1" as="geometry">
            <Array as="points">
              <mxPoint x="255" y="112" />
              <mxPoint x="233" y="112" />
            </Array>
          </mxGeometry>
        </mxCell>
        <mxCell id="xGkH-jB9jSA_RrB5lTJx-162" value="id" style="text;html=1;align=center;verticalAlign=middle;resizable=0;points=[];autosize=1;strokeColor=none;fillColor=none;" vertex="1" parent="1">
          <mxGeometry x="570" y="102" width="30" height="30" as="geometry" />
        </mxCell>
        <mxCell id="xGkH-jB9jSA_RrB5lTJx-163" value="tipo" style="text;html=1;align=center;verticalAlign=middle;resizable=0;points=[];autosize=1;strokeColor=none;fillColor=none;" vertex="1" parent="1">
          <mxGeometry x="690" y="-470" width="40" height="30" as="geometry" />
        </mxCell>
        <mxCell id="xGkH-jB9jSA_RrB5lTJx-164" value="" style="shape=waypoint;sketch=0;size=6;pointerEvents=1;points=[];fillColor=default;resizable=0;rotatable=0;perimeter=centerPerimeter;snapToPoint=1;rounded=0;" vertex="1" parent="1">
          <mxGeometry x="700" y="-448" width="20" height="20" as="geometry" />
        </mxCell>
        <mxCell id="xGkH-jB9jSA_RrB5lTJx-165" value="" style="shape=waypoint;sketch=0;size=6;pointerEvents=1;points=[];fillColor=default;resizable=0;rotatable=0;perimeter=centerPerimeter;snapToPoint=1;rounded=0;" vertex="1" parent="1">
          <mxGeometry x="740" y="-448" width="20" height="20" as="geometry" />
        </mxCell>
        <mxCell id="xGkH-jB9jSA_RrB5lTJx-166" value="numero" style="text;html=1;align=center;verticalAlign=middle;resizable=0;points=[];autosize=1;strokeColor=none;fillColor=none;" vertex="1" parent="1">
          <mxGeometry x="730" y="-470" width="60" height="30" as="geometry" />
        </mxCell>
        <mxCell id="xGkH-jB9jSA_RrB5lTJx-167" value="scadenza" style="text;html=1;align=center;verticalAlign=middle;resizable=0;points=[];autosize=1;strokeColor=none;fillColor=none;" vertex="1" parent="1">
          <mxGeometry x="795" y="-470" width="70" height="30" as="geometry" />
        </mxCell>
        <mxCell id="xGkH-jB9jSA_RrB5lTJx-168" value="" style="shape=waypoint;sketch=0;size=6;pointerEvents=1;points=[];fillColor=default;resizable=0;rotatable=0;perimeter=centerPerimeter;snapToPoint=1;rounded=0;" vertex="1" parent="1">
          <mxGeometry x="700" y="102" width="20" height="20" as="geometry" />
        </mxCell>
        <mxCell id="xGkH-jB9jSA_RrB5lTJx-169" value="codice fiscale" style="text;html=1;align=center;verticalAlign=middle;resizable=0;points=[];autosize=1;strokeColor=none;fillColor=none;" vertex="1" parent="1">
          <mxGeometry x="660" y="110" width="100" height="30" as="geometry" />
        </mxCell>
        <mxCell id="xGkH-jB9jSA_RrB5lTJx-170" value="nome" style="text;html=1;align=center;verticalAlign=middle;resizable=0;points=[];autosize=1;strokeColor=none;fillColor=none;" vertex="1" parent="1">
          <mxGeometry x="710" y="142" width="50" height="30" as="geometry" />
        </mxCell>
        <mxCell id="xGkH-jB9jSA_RrB5lTJx-171" value="cognome" style="text;html=1;align=center;verticalAlign=middle;resizable=0;points=[];autosize=1;strokeColor=none;fillColor=none;" vertex="1" parent="1">
          <mxGeometry x="715" y="172" width="70" height="30" as="geometry" />
        </mxCell>
        <mxCell id="xGkH-jB9jSA_RrB5lTJx-172" value="nascita" style="text;html=1;align=center;verticalAlign=middle;resizable=0;points=[];autosize=1;strokeColor=none;fillColor=none;" vertex="1" parent="1">
          <mxGeometry x="740" y="200" width="60" height="30" as="geometry" />
        </mxCell>
        <mxCell id="xGkH-jB9jSA_RrB5lTJx-173" value="nazionalità" style="text;html=1;align=center;verticalAlign=middle;resizable=0;points=[];autosize=1;strokeColor=none;fillColor=none;" vertex="1" parent="1">
          <mxGeometry x="820" y="152" width="80" height="30" as="geometry" />
        </mxCell>
        <mxCell id="xGkH-jB9jSA_RrB5lTJx-174" value="telefono" style="text;html=1;align=center;verticalAlign=middle;resizable=0;points=[];autosize=1;strokeColor=none;fillColor=none;" vertex="1" parent="1">
          <mxGeometry x="850" y="92" width="70" height="30" as="geometry" />
        </mxCell>
        <mxCell id="xGkH-jB9jSA_RrB5lTJx-175" value="email" style="text;html=1;align=center;verticalAlign=middle;resizable=0;points=[];autosize=1;strokeColor=none;fillColor=none;" vertex="1" parent="1">
          <mxGeometry x="890" y="42" width="50" height="30" as="geometry" />
        </mxCell>
        <mxCell id="xGkH-jB9jSA_RrB5lTJx-176" style="edgeStyle=orthogonalEdgeStyle;orthogonalLoop=1;jettySize=auto;html=1;exitX=0.25;exitY=1;exitDx=0;exitDy=0;entryX=0.96;entryY=0.11;entryDx=0;entryDy=0;entryPerimeter=0;" edge="1" parent="1" source="xGkH-jB9jSA_RrB5lTJx-125" target="xGkH-jB9jSA_RrB5lTJx-170">
          <mxGeometry relative="1" as="geometry" />
        </mxCell>
        <mxCell id="xGkH-jB9jSA_RrB5lTJx-177" style="edgeStyle=orthogonalEdgeStyle;orthogonalLoop=1;jettySize=auto;html=1;exitX=0.25;exitY=1;exitDx=0;exitDy=0;entryX=0.81;entryY=0.1;entryDx=0;entryDy=0;entryPerimeter=0;" edge="1" parent="1" source="xGkH-jB9jSA_RrB5lTJx-125" target="xGkH-jB9jSA_RrB5lTJx-171">
          <mxGeometry relative="1" as="geometry" />
        </mxCell>
        <mxCell id="xGkH-jB9jSA_RrB5lTJx-178" style="edgeStyle=orthogonalEdgeStyle;orthogonalLoop=1;jettySize=auto;html=1;exitX=0.5;exitY=1;exitDx=0;exitDy=0;entryX=0.852;entryY=0.043;entryDx=0;entryDy=0;entryPerimeter=0;" edge="1" parent="1" source="xGkH-jB9jSA_RrB5lTJx-125" target="xGkH-jB9jSA_RrB5lTJx-172">
          <mxGeometry relative="1" as="geometry" />
        </mxCell>
        <mxCell id="xGkH-jB9jSA_RrB5lTJx-179" style="edgeStyle=orthogonalEdgeStyle;orthogonalLoop=1;jettySize=auto;html=1;exitX=0.75;exitY=1;exitDx=0;exitDy=0;entryX=0.175;entryY=0.043;entryDx=0;entryDy=0;entryPerimeter=0;" edge="1" parent="1" source="xGkH-jB9jSA_RrB5lTJx-125" target="xGkH-jB9jSA_RrB5lTJx-173">
          <mxGeometry relative="1" as="geometry" />
        </mxCell>
        <mxCell id="xGkH-jB9jSA_RrB5lTJx-180" style="edgeStyle=orthogonalEdgeStyle;orthogonalLoop=1;jettySize=auto;html=1;exitX=0.75;exitY=1;exitDx=0;exitDy=0;entryX=0.508;entryY=0.014;entryDx=0;entryDy=0;entryPerimeter=0;" edge="1" parent="1" source="xGkH-jB9jSA_RrB5lTJx-125" target="xGkH-jB9jSA_RrB5lTJx-174">
          <mxGeometry relative="1" as="geometry" />
        </mxCell>
        <mxCell id="xGkH-jB9jSA_RrB5lTJx-181" style="edgeStyle=orthogonalEdgeStyle;orthogonalLoop=1;jettySize=auto;html=1;exitX=1;exitY=1;exitDx=0;exitDy=0;entryX=0.311;entryY=0.129;entryDx=0;entryDy=0;entryPerimeter=0;" edge="1" parent="1" source="xGkH-jB9jSA_RrB5lTJx-125" target="xGkH-jB9jSA_RrB5lTJx-175">
          <mxGeometry relative="1" as="geometry">
            <Array as="points">
              <mxPoint x="850" y="46" />
            </Array>
          </mxGeometry>
        </mxCell>
        <mxCell id="xGkH-jB9jSA_RrB5lTJx-182" value="" style="shape=waypoint;sketch=0;size=6;pointerEvents=1;points=[];fillColor=default;resizable=0;rotatable=0;perimeter=centerPerimeter;snapToPoint=1;rounded=0;" vertex="1" parent="1">
          <mxGeometry x="470" y="-238" width="20" height="20" as="geometry" />
        </mxCell>
        <mxCell id="xGkH-jB9jSA_RrB5lTJx-183" value="&lt;div&gt;numero biglietto&lt;/div&gt;" style="text;html=1;align=center;verticalAlign=middle;resizable=0;points=[];autosize=1;strokeColor=none;fillColor=none;" vertex="1" parent="1">
          <mxGeometry x="450" y="-258" width="110" height="30" as="geometry" />
        </mxCell>
        <mxCell id="xGkH-jB9jSA_RrB5lTJx-184" value="classe viaggio" style="text;html=1;align=center;verticalAlign=middle;resizable=0;points=[];autosize=1;strokeColor=none;fillColor=none;" vertex="1" parent="1">
          <mxGeometry x="500" y="-288" width="100" height="30" as="geometry" />
        </mxCell>
        <mxCell id="xGkH-jB9jSA_RrB5lTJx-185" value="posto" style="text;html=1;align=center;verticalAlign=middle;resizable=0;points=[];autosize=1;strokeColor=none;fillColor=none;" vertex="1" parent="1">
          <mxGeometry x="580" y="-208" width="50" height="30" as="geometry" />
        </mxCell>
        <mxCell id="xGkH-jB9jSA_RrB5lTJx-186" style="edgeStyle=orthogonalEdgeStyle;orthogonalLoop=1;jettySize=auto;html=1;exitX=1;exitY=0;exitDx=0;exitDy=0;entryX=0.797;entryY=0.919;entryDx=0;entryDy=0;entryPerimeter=0;" edge="1" parent="1" source="xGkH-jB9jSA_RrB5lTJx-119" target="xGkH-jB9jSA_RrB5lTJx-184">
          <mxGeometry relative="1" as="geometry" />
        </mxCell>
        <mxCell id="xGkH-jB9jSA_RrB5lTJx-187" style="edgeStyle=orthogonalEdgeStyle;orthogonalLoop=1;jettySize=auto;html=1;exitX=1;exitY=0;exitDx=0;exitDy=0;entryX=0;entryY=0.667;entryDx=0;entryDy=0;entryPerimeter=0;" edge="1" parent="1" source="xGkH-jB9jSA_RrB5lTJx-119" target="xGkH-jB9jSA_RrB5lTJx-185">
          <mxGeometry relative="1" as="geometry" />
        </mxCell>
        <mxCell id="xGkH-jB9jSA_RrB5lTJx-196" style="edgeStyle=orthogonalEdgeStyle;rounded=0;orthogonalLoop=1;jettySize=auto;html=1;entryX=0.5;entryY=0;entryDx=0;entryDy=0;" edge="1" parent="1" source="xGkH-jB9jSA_RrB5lTJx-189" target="xGkH-jB9jSA_RrB5lTJx-195">
          <mxGeometry relative="1" as="geometry" />
        </mxCell>
        <mxCell id="xGkH-jB9jSA_RrB5lTJx-202" value="0,N" style="edgeLabel;html=1;align=center;verticalAlign=middle;resizable=0;points=[];" vertex="1" connectable="0" parent="xGkH-jB9jSA_RrB5lTJx-196">
          <mxGeometry x="-0.8985" y="-2" relative="1" as="geometry">
            <mxPoint as="offset" />
          </mxGeometry>
        </mxCell>
        <mxCell id="xGkH-jB9jSA_RrB5lTJx-205" value="" style="edgeStyle=orthogonalEdgeStyle;rounded=0;orthogonalLoop=1;jettySize=auto;html=1;" edge="1" parent="1" source="xGkH-jB9jSA_RrB5lTJx-189" target="xGkH-jB9jSA_RrB5lTJx-204">
          <mxGeometry relative="1" as="geometry" />
        </mxCell>
        <mxCell id="xGkH-jB9jSA_RrB5lTJx-211" style="edgeStyle=orthogonalEdgeStyle;rounded=0;orthogonalLoop=1;jettySize=auto;html=1;exitX=1;exitY=0.75;exitDx=0;exitDy=0;" edge="1" parent="1" source="xGkH-jB9jSA_RrB5lTJx-189" target="xGkH-jB9jSA_RrB5lTJx-207">
          <mxGeometry relative="1" as="geometry" />
        </mxCell>
        <mxCell id="xGkH-jB9jSA_RrB5lTJx-189" value="Dipendente" style="whiteSpace=wrap;html=1;rounded=0;" vertex="1" parent="1">
          <mxGeometry x="940" y="355" width="120" height="40" as="geometry" />
        </mxCell>
        <mxCell id="xGkH-jB9jSA_RrB5lTJx-192" style="edgeStyle=orthogonalEdgeStyle;rounded=0;orthogonalLoop=1;jettySize=auto;html=1;exitX=0.5;exitY=0;exitDx=0;exitDy=0;entryX=1;entryY=0.5;entryDx=0;entryDy=0;" edge="1" parent="1" source="xGkH-jB9jSA_RrB5lTJx-190" target="xGkH-jB9jSA_RrB5lTJx-125">
          <mxGeometry relative="1" as="geometry" />
        </mxCell>
        <mxCell id="xGkH-jB9jSA_RrB5lTJx-193" style="edgeStyle=orthogonalEdgeStyle;rounded=0;orthogonalLoop=1;jettySize=auto;html=1;exitX=0.5;exitY=1;exitDx=0;exitDy=0;entryX=0.5;entryY=0;entryDx=0;entryDy=0;" edge="1" parent="1" source="xGkH-jB9jSA_RrB5lTJx-190" target="xGkH-jB9jSA_RrB5lTJx-189">
          <mxGeometry relative="1" as="geometry" />
        </mxCell>
        <mxCell id="xGkH-jB9jSA_RrB5lTJx-190" value="è una" style="shape=rhombus;perimeter=rhombusPerimeter;whiteSpace=wrap;html=1;align=center;" vertex="1" parent="1">
          <mxGeometry x="900" y="232" width="100" height="50" as="geometry" />
        </mxCell>
        <mxCell id="xGkH-jB9jSA_RrB5lTJx-195" value="Lavora a" style="shape=rhombus;perimeter=rhombusPerimeter;whiteSpace=wrap;html=1;align=center;" vertex="1" parent="1">
          <mxGeometry x="910" y="700" width="120" height="60" as="geometry" />
        </mxCell>
        <mxCell id="xGkH-jB9jSA_RrB5lTJx-197" value="Lavora a" style="shape=rhombus;perimeter=rhombusPerimeter;whiteSpace=wrap;html=1;align=center;" vertex="1" parent="1">
          <mxGeometry x="920" y="-318" width="120" height="60" as="geometry" />
        </mxCell>
        <mxCell id="xGkH-jB9jSA_RrB5lTJx-199" style="edgeStyle=orthogonalEdgeStyle;rounded=0;orthogonalLoop=1;jettySize=auto;html=1;exitX=0.5;exitY=1;exitDx=0;exitDy=0;entryX=0.842;entryY=0.025;entryDx=0;entryDy=0;entryPerimeter=0;" edge="1" parent="1" source="xGkH-jB9jSA_RrB5lTJx-197" target="xGkH-jB9jSA_RrB5lTJx-189">
          <mxGeometry relative="1" as="geometry" />
        </mxCell>
        <mxCell id="xGkH-jB9jSA_RrB5lTJx-201" value="0,N" style="edgeLabel;html=1;align=center;verticalAlign=middle;resizable=0;points=[];" vertex="1" connectable="0" parent="xGkH-jB9jSA_RrB5lTJx-199">
          <mxGeometry x="0.9526" y="1" relative="1" as="geometry">
            <mxPoint as="offset" />
          </mxGeometry>
        </mxCell>
        <mxCell id="xGkH-jB9jSA_RrB5lTJx-204" value="matricola" style="text;html=1;align=center;verticalAlign=middle;resizable=0;points=[];autosize=1;strokeColor=none;fillColor=none;" vertex="1" parent="1">
          <mxGeometry x="1120" y="330" width="70" height="30" as="geometry" />
        </mxCell>
        <mxCell id="xGkH-jB9jSA_RrB5lTJx-206" value="" style="shape=waypoint;sketch=0;size=6;pointerEvents=1;points=[];fillColor=default;resizable=0;rotatable=0;perimeter=centerPerimeter;snapToPoint=1;rounded=0;" vertex="1" parent="1">
          <mxGeometry x="1110" y="335" width="20" height="20" as="geometry" />
        </mxCell>
        <mxCell id="xGkH-jB9jSA_RrB5lTJx-207" value="data assunzione" style="text;html=1;align=center;verticalAlign=middle;resizable=0;points=[];autosize=1;strokeColor=none;fillColor=none;" vertex="1" parent="1">
          <mxGeometry x="1110" y="370" width="110" height="30" as="geometry" />
        </mxCell>
        <mxCell id="xGkH-jB9jSA_RrB5lTJx-209" value="stipendio" style="text;html=1;align=center;verticalAlign=middle;resizable=0;points=[];autosize=1;strokeColor=none;fillColor=none;" vertex="1" parent="1">
          <mxGeometry x="1110" y="410" width="70" height="30" as="geometry" />
        </mxCell>
        <mxCell id="xGkH-jB9jSA_RrB5lTJx-210" style="edgeStyle=orthogonalEdgeStyle;rounded=0;orthogonalLoop=1;jettySize=auto;html=1;exitX=1;exitY=0.75;exitDx=0;exitDy=0;entryX=0;entryY=0.533;entryDx=0;entryDy=0;entryPerimeter=0;" edge="1" parent="1" source="xGkH-jB9jSA_RrB5lTJx-189" target="xGkH-jB9jSA_RrB5lTJx-209">
          <mxGeometry relative="1" as="geometry" />
        </mxCell>
      </root>
    </mxGraphModel>
  </diagram>
</mxfile>
